<svg xmlns="http://www.w3.org/2000/svg" viewBox="0 0 306.35 70.12"><defs><style>.cls-1,.cls-2{fill:#6765d6;}.cls-1,.cls-3{stroke:#fff;stroke-miterlimit:10;stroke-width:0.75px;}.cls-3{fill:#a9a9d3;}.cls-4{fill:#8484d3;}</style></defs><g id="M"><path class="cls-1" d="M76.53,52.76l0-25.8h0c0-6.33-8-9.61-16.2-9.61H50A24.94,24.94,0,0,0,39.15,19.6a25,25,0,0,0-10.82-2.25v0H18c-8.23,0-16.22,3.28-16.2,9.61h0l0,25.8H12.53V30.83c0-3.34,2.57-5.06,5.44-5.06H28.33c2.79,0,5.27,1.62,5.43,4.75V52.76H44.54l0-22c0-3.3,2.58-5,5.44-5H60.31c2.87,0,5.44,1.72,5.44,5.05V52.76Z"/><rect class="cls-2" x="27.76" y="17.87" width="0.94" height="2.8"/></g><g id="T"><rect class="cls-1" x="121.16" y="17.37" width="42" height="8.4"/><rect class="cls-1" x="136.75" y="30.56" width="10.81" height="22.2"/></g><g id="E"><path class="cls-1" d="M175.76,17.36c-1.32,0-6.6.44-6.6,8.4h36.59v-8.4Z"/><path class="cls-1" d="M169.16,33.82v10.7h0c.16,7.62,5.29,8.06,6.59,8.06h30V44.19H182c-1.88,0-2.12-2.28-2.07-5h25.83V30.56H169.16Z"/></g><g id="C"><path class="cls-1" d="M224.61,25.76Z"/><path class="cls-1" d="M224.61,30.29V29.23c0-3,3.33-3.42,4.13-3.46h22.61V17.37H220.87c-1.35,0-6.71.44-6.71,8.39V44.19c0,8,5.36,8.39,6.71,8.39h30.48V44.19H228.74c-.8,0-4.13-.47-4.13-3.47V30.29Z"/><path class="cls-2" d="M228.77,25.38c2.08,0-5.15-1.17-5.15-1.17s.41,4.37,1,3.37A4.9,4.9,0,0,1,228.77,25.38Z"/><path class="cls-2" d="M228.8,44.57c2.08,0-5.18,1.24-5.18,1.24s.49-4.4,1-3.38A4.81,4.81,0,0,0,228.8,44.57Z"/></g><g id="H"><polygon class="cls-1" points="293.96 17.36 293.96 30.56 269.94 30.56 269.94 17.36 259.16 17.36 259.16 52.58 269.94 52.58 269.94 39.17 293.96 39.17 293.96 52.58 304.74 52.58 304.74 17.36 293.96 17.36"/></g><g id="A"><polygon class="cls-3" points="83.35 52.76 122.96 52.76 103.16 17.59 83.35 52.76"/><g id="Joystick"><path class="cls-4" d="M113.15,26.36a7.15,7.15,0,0,0-2.65,0,7.74,7.74,0,0,0-2.85,1.76h-3.59v-3h-1.81v3H98.66a7.74,7.74,0,0,0-2.85-1.76,7.15,7.15,0,0,0-2.65,0c-1.12.22-2.9,1.09-2.91,1.79h0v15a3.21,3.21,0,0,0,3.19,2.44c2,0,3.78-2.26,3.84-2.44l2-3.57h7.81l2,3.57c0,.18,1.84,2.44,3.83,2.44a3.21,3.21,0,0,0,3.19-2.44v-15h0C116.06,27.45,114.27,26.58,113.15,26.36Z"/></g></g></svg>