<svg xmlns="http://www.w3.org/2000/svg" viewBox="0 0 370.69 70.12"><defs><style>.cls-1,.cls-2{fill:#6d7cbf;}.cls-1,.cls-3,.cls-4{stroke:#fff;stroke-miterlimit:10;stroke-width:0.75px;}.cls-3{fill:none;}.cls-4{fill:#d3d3e6;}.cls-5{fill:#aaafd2;}</style></defs><g id="M"><path class="cls-1" d="M108.63,52.76V27h0c0-6.33-8-9.61-16.21-9.61H82.06A24.94,24.94,0,0,0,71.25,19.6a25,25,0,0,0-10.82-2.25v0H50.07c-8.23,0-16.22,3.28-16.2,9.61h0l0,25.8H44.63V30.83c0-3.34,2.57-5.06,5.44-5.06H60.43c2.79,0,5.28,1.62,5.43,4.75V52.76H76.64v-22c0-3.3,2.57-5,5.43-5H92.41c2.87,0,5.44,1.72,5.44,5.05V52.76Z"/><rect class="cls-2" x="59.86" y="17.87" width="0.94" height="2.8"/></g><g id="T"><rect class="cls-1" x="153.26" y="17.37" width="42" height="8.4"/><rect class="cls-1" x="168.85" y="30.56" width="10.81" height="22.2"/></g><g id="E"><path class="cls-1" d="M207.86,17.36c-1.32,0-6.6.44-6.6,8.4h36.6v-8.4Z"/><path class="cls-1" d="M201.26,33.82v10.7h0c.15,7.62,5.28,8.06,6.58,8.06h30V44.19H214.1c-1.89,0-2.13-2.28-2.07-5h25.83V30.56h-36.6Z"/></g><g id="C"><path class="cls-3" d="M256.71,25.76Z"/><path class="cls-1" d="M256.71,30.29V29.23c0-3,3.33-3.42,4.13-3.46h22.61V17.37H253c-1.34,0-6.71.44-6.71,8.39V44.19c0,8,5.37,8.39,6.71,8.39h30.48V44.19H260.84c-.8,0-4.13-.47-4.13-3.47V30.29Z"/><path class="cls-2" d="M260.88,25.38c2.07,0-5.16-1.17-5.16-1.17s.42,4.37,1,3.37A4.91,4.91,0,0,1,260.88,25.38Z"/><path class="cls-2" d="M260.9,44.57c2.08,0-5.18,1.24-5.18,1.24s.5-4.4,1-3.38A4.81,4.81,0,0,0,260.9,44.57Z"/></g><g id="H"><polygon class="cls-1" points="326.06 17.36 326.06 30.56 302.04 30.56 302.04 17.36 291.26 17.36 291.26 52.58 302.04 52.58 302.04 39.17 326.06 39.17 326.06 52.58 336.84 52.58 336.84 17.36 326.06 17.36"/></g><g id="A"><polygon class="cls-4" points="115.45 52.76 155.06 52.76 135.26 17.59 115.45 52.76"/><g id="Joystick"><polygon class="cls-5" points="131.66 39.56 137.66 39.56 147.86 39.56 147.86 28.15 122.06 28.15 122.06 39.56 131.66 39.56"/><path class="cls-5" d="M122.06,28.15c0,.43,9.31.73,8.41,0a7.74,7.74,0,0,0-2.85-1.76,7.14,7.14,0,0,0-2.65,0C123.84,26.58,122.06,27.45,122.06,28.15Z"/><path class="cls-5" d="M147.86,28.15c0,.43-9.31.73-8.41,0a7.83,7.83,0,0,1,2.85-1.76,7.14,7.14,0,0,1,2.65,0C146.08,26.58,147.86,27.45,147.86,28.15Z"/><rect class="cls-5" x="134.06" y="25.16" width="1.81" height="2.99"/><polygon class="cls-5" points="122.06 39.56 131.06 39.56 129.08 43.13 122.06 43.13 122.06 39.56"/><path class="cls-5" d="M129.08,43.13c-.06.18-1.85,2.44-3.84,2.44a3.2,3.2,0,0,1-3.18-2.44c0-.74,1.61,0,3.6,0S129.14,43,129.08,43.13Z"/><polygon class="cls-5" points="147.86 39.56 138.87 39.56 140.84 43.13 147.86 43.13 147.86 39.56"/><path class="cls-5" d="M140.84,43.13c.06.18,1.85,2.44,3.84,2.44a3.2,3.2,0,0,0,3.18-2.44c0-.74-1.61,0-3.6,0S140.78,43,140.84,43.13Z"/></g></g></svg>